<mxfile host="app.diagrams.net" modified="2023-09-12T06:13:42.091Z" agent="Mozilla/5.0 (X11; Linux x86_64) AppleWebKit/537.36 (KHTML, like Gecko) Chrome/115.0.0.0 Safari/537.36" version="21.7.4" etag="WFExYjcIfKKQgY4jyb5i" type="github">
  <diagram name="Page-1" id="lss_lqt-mTBydHFkdG4l">
    <mxGraphModel>
      <root>
        <mxCell id="0" />
        <mxCell id="1" parent="0" />
      </root>
    </mxGraphModel>
  </diagram>
</mxfile>
